<?xml version="1.0" encoding="UTF-8" standalone="no"?>
<svg
   xmlns:dc="http://purl.org/dc/elements/1.1/"
   xmlns:cc="http://creativecommons.org/ns#"
   xmlns:rdf="http://www.w3.org/1999/02/22-rdf-syntax-ns#"
   xmlns:svg="http://www.w3.org/2000/svg"
   xmlns="http://www.w3.org/2000/svg"
   xmlns:sodipodi="http://sodipodi.sourceforge.net/DTD/sodipodi-0.dtd"
   xmlns:inkscape="http://www.inkscape.org/namespaces/inkscape"
   height="1200.6"
   width="1200.6"
   inkscape:version="1.0 (1.0+r73+1)"
   sodipodi:docname="hero.svg"
   id="svg244"
   version="1.1"
   viewBox="0 0 1200.6 1200.6">
  <metadata
     id="metadata250">
    <rdf:RDF>
      <cc:Work
         rdf:about="">
        <dc:format>image/svg+xml</dc:format>
        <dc:type
           rdf:resource="http://purl.org/dc/dcmitype/StillImage" />
        <dc:title></dc:title>
      </cc:Work>
    </rdf:RDF>
  </metadata>
  <defs
     id="defs248" />
  <sodipodi:namedview
     fit-margin-bottom="0"
     fit-margin-right="0"
     fit-margin-left="0"
     fit-margin-top="0"
     inkscape:current-layer="g242"
     inkscape:cy="566.29848"
     inkscape:cx="1299.7687"
     inkscape:zoom="0.48192168"
     inkscape:snap-bbox-midpoints="true"
     inkscape:snap-bbox-edge-midpoints="true"
     inkscape:bbox-nodes="true"
     inkscape:bbox-paths="true"
     inkscape:snap-bbox="true"
     showgrid="false"
     id="namedview246"
     inkscape:window-height="480"
     inkscape:window-width="640"
     inkscape:pageshadow="2"
     inkscape:pageopacity="0"
     guidetolerance="10"
     gridtolerance="10"
     objecttolerance="10"
     borderopacity="1"
     bordercolor="#666666"
     pagecolor="#ffffff" />
  <g
     id="g242"
     fill="none">
    <g
       id="g4961">
      <g
         transform="translate(240.6,240.6)"
         id="g8">
        <circle
           cx="120"
           cy="120"
           r="120"
           fill="#d33367"
           id="circle2" />
        <circle
           cx="121"
           cy="121"
           r="70"
           fill="#2d374c"
           id="circle4" />
        <circle
           cx="121"
           cy="121"
           r="37"
           fill="#36868e"
           id="circle6" />
      </g>
      <g
         transform="translate(720,240.6)"
         id="g16">
        <circle
           cx="120"
           cy="120"
           r="120"
           fill="#ff8b61"
           id="circle10" />
        <circle
           cx="121"
           cy="121"
           r="70"
           fill="#2d374c"
           id="circle12" />
        <circle
           cx="121"
           cy="121"
           r="37"
           fill="#f1e3cf"
           id="circle14" />
      </g>
      <path
         fill="#d33367"
         d="m 1081.769,421.337 c 0,32.567 26.4,58.968 58.968,58.968 32.567,0 58.968,-26.4 58.968,-58.968 0,-32.567 -26.4,-58.968 -58.968,-58.968 -32.567,0 -58.968,26.4 -58.968,58.968 z"
         id="path26" />
      <path
         fill="#ff8b61"
         d="m 960.295,421.337 c 0,32.567 26.4,58.968 58.968,58.968 32.567,0 58.968,-26.4 58.968,-58.968 0,-32.567 -26.4,-58.968 -58.968,-58.968 -32.567,0 -58.968,26.4 -58.968,58.968 z m 121.474,-119.115 c 0,32.567 26.4,58.968 58.968,58.968 32.567,0 58.968,-26.401 58.968,-58.968 0,-32.568 -26.4,-58.968 -58.968,-58.968 -32.567,0 -58.968,26.4 -58.968,58.968 z"
         id="path28" />
      <path
         fill="#36868e"
         d="m 960,240.6 v 60.147 c 0,33.219 27.06,60.148 60.442,60.148 33.382,0 60.443,-26.93 60.443,-60.148 0,-33.218 -27.061,-60.147 -60.443,-60.147 z"
         id="path30" />
      <path
         fill="#f1e3cf"
         d="m 1080,240.6 c 66.274,0 120,-53.726 120,-120 0,-66.274 -53.726,-120 -120,-120 H 960 v 120 c 0,66.274 53.726,120 120,120 z"
         id="path42" />
      <path
         fill="#2d374c"
         d="m 1031.759,144.118 c 39.631,0 71.759,-32.128 71.759,-71.76 0,-39.63 -32.128,-71.758 -71.76,-71.758 H 960 v 71.759 c 0,39.631 32.128,71.759 71.759,71.759 z"
         id="path44" />
      <path
         fill="#36868e"
         d="m 1080,195.072 c 40.464,0 73.266,-32.802 73.266,-73.266 0,-40.464 -32.802,-73.266 -73.266,-73.266 -40.464,0 -73.266,32.802 -73.266,73.266 0,40.464 32.802,73.266 73.266,73.266 z"
         id="path46" />
      <path
         fill="#2d374c"
         d="m 1080,164.695 c 23.687,0 42.89,-19.202 42.89,-42.889 0,-23.687 -19.203,-42.89 -42.89,-42.89 -23.687,0 -42.89,19.203 -42.89,42.89 0,23.687 19.203,42.89 42.89,42.89 z"
         id="path48" />
      <g
         transform="translate(240,480.6)"
         id="g80">
        <circle
           r="101"
           cx="120"
           cy="120"
           fill="#f1e3cf"
           id="ellipse70" />
        <path
           fill="#d33367"
           d="M 240,0 C 240,65.948 186.67,119.409 120.885,119.409 120.885,53.46 174.215,0 240,0 Z"
           id="path72" />
        <path
           fill="#36868e"
           d="m 119.115,115.93 v 3.479 h -3.469 C 51.776,119.409 0,67.505 0,3.478 V 0 h 3.47 c 63.869,0 115.645,51.904 115.645,115.93 z"
           id="path74" />
        <path
           fill="#d33367"
           d="m 115.646,120.591 h 3.47 v 3.478 C 119.115,188.096 67.338,240 3.468,240 H 0 v -3.478 c 0,-64.027 51.777,-115.93 115.646,-115.93 z"
           id="path76" />
        <path
           fill="#36868e"
           d="M 240,236.522 V 240 h -3.47 C 172.661,240 120.885,188.096 120.885,124.07 v -3.479 h 3.469 c 63.87,0 115.646,51.904 115.646,115.931 z"
           id="path78" />
      </g>
      <g
         transform="translate(960,480.6)"
         id="g92">
        <circle
           cx="120"
           cy="119"
           r="101"
           fill="#f1e3cf"
           id="circle82" />
        <path
           fill="#d33367"
           d="M 116.505,240 C 52.16,240 0,187.839 0,123.495 V 120 H 3.495 C 67.84,120 120,172.161 120,236.505 V 240 Z"
           id="path84" />
        <path
           fill="#36868e"
           d="M 236.505,120 H 240 v 3.495 C 240,187.84 187.839,240 123.495,240 H 120 v -3.495 C 120,172.16 172.161,120 236.505,120 Z"
           id="path86" />
        <path
           fill="#d33367"
           d="M 123.495,120 H 120 v -3.495 C 120,52.16 172.161,0 236.505,0 H 240 V 3.495 C 240,67.84 187.839,120 123.495,120 Z"
           id="path88" />
        <path
           fill="#36868e"
           d="M 3.495,0 C 67.84,0 120,52.161 120,116.505 V 120 h -3.495 C 52.16,120 0,67.839 0,3.495 V 0 Z"
           id="path90" />
      </g>
      <g
         transform="rotate(90,-240.3,480.3)"
         id="g104">
        <circle
           cx="120"
           cy="119"
           r="101"
           fill="#f1e3cf"
           id="circle94" />
        <path
           fill="#d33367"
           d="M 116.505,240 C 52.16,240 0,187.839 0,123.495 V 120 H 3.495 C 67.84,120 120,172.161 120,236.505 V 240 Z"
           id="path96" />
        <path
           fill="#36868e"
           d="M 236.505,120 H 240 v 3.495 C 240,187.84 187.839,240 123.495,240 H 120 v -3.495 C 120,172.16 172.161,120 236.505,120 Z"
           id="path98" />
        <path
           fill="#d33367"
           d="M 123.495,120 H 120 v -3.495 C 120,52.16 172.161,0 236.505,0 H 240 V 3.495 C 240,67.84 187.839,120 123.495,120 Z"
           id="path100" />
        <path
           fill="#36868e"
           d="M 3.495,0 C 67.84,0 120,52.161 120,116.505 V 120 h -3.495 C 52.16,120 0,67.839 0,3.495 V 0 Z"
           id="path102" />
      </g>
      <path
         fill="#d33367"
         d="m 720,0.6 v 240 H 480 C 480,108.052 587.452,0.6 720,0.6 Z"
         id="path106" />
      <path
         fill="#f1e3cf"
         d="M 720,104.384 V 240.6 H 583.448 c 0,-75.23 61.137,-136.216 136.552,-136.216 z"
         id="path108" />
      <path
         fill="#2d374c"
         d="M 720,178.094 V 240.6 h -62.66 c 0,-34.521 28.054,-62.506 62.66,-62.506 z"
         id="path110" />
      <path
         fill="#36868e"
         d="m 0,720.6 v -240 h 240 c 0,132.548 -107.452,240 -240,240 z"
         id="path118" />
      <path
         fill="#f1e3cf"
         d="M 0,617.152 V 480.6 H 136.216 C 136.216,556.015 75.23,617.152 0,617.152 Z"
         id="path120" />
      <path
         fill="#2d374c"
         d="M 0,543.26 V 480.6 h 62.506 c 0,34.606 -27.985,62.66 -62.506,62.66 z"
         id="path122" />
      <path
         fill="#36868e"
         d="m 120.6,0.6 c 66.274,0 120,53.726 120,120 0,66.274 -53.726,120 -120,120 -66.274,0 -120,-53.726 -120,-120 0,-66.274 53.726,-120 120,-120 z"
         id="path130" />
      <path
         fill="#f1e3cf"
         d="m 121.19,48.954 c 39.894,0 72.236,32.34 72.236,72.236 0,39.894 -32.342,72.236 -72.236,72.236 -39.895,0 -72.236,-32.342 -72.236,-72.236 0,-39.895 32.34,-72.236 72.236,-72.236 z"
         id="path132" />
      <path
         fill="#2d374c"
         d="m 122.369,83.745 c 21.332,0 38.624,17.293 38.624,38.624 0,21.332 -17.292,38.624 -38.624,38.624 -21.331,0 -38.624,-17.292 -38.624,-38.624 0,-21.331 17.293,-38.624 38.624,-38.624 z"
         id="path134" />
      <path
         fill="#d33367"
         d="M 240.6,94.949 V 240.6 H 94.949 c 0,-80.44 65.21,-145.651 145.651,-145.651 z"
         id="path136" />
      <path
         fill="#ff8b61"
         d="M 299.568,117.936 C 267.001,117.936 240.6,91.536 240.6,58.968 240.6,26.401 267,0 299.568,0 c 32.567,0 58.968,26.4 58.968,58.968 0,32.567 -26.4,58.968 -58.968,58.968 z"
         id="path146" />
      <path
         fill="#d33367"
         d="m 299.568,240 c -32.567,0 -58.968,-26.4 -58.968,-58.968 0,-32.567 26.4,-58.968 58.968,-58.968 32.567,0 58.968,26.4 58.968,58.968 0,32.567 -26.4,58.968 -58.968,58.968 z M 419.273,117.936 c -32.567,0 -58.968,-26.4 -58.968,-58.968 C 360.305,26.401 386.706,0 419.273,0 c 32.567,0 58.968,26.4 58.968,58.968 0,32.567 -26.4,58.968 -58.968,58.968 z"
         id="path148" />
      <path
         fill="#36868e"
         d="m 480.6,240 h -60.442 c -33.382,0 -60.443,-27.06 -60.443,-60.442 0,-33.382 27.061,-60.443 60.443,-60.443 33.381,0 60.442,27.061 60.442,60.443 z"
         id="path150" />
      <path
         fill="#d33367"
         d="m 601.769,779.863 c 0,-32.567 26.4,-58.968 58.968,-58.968 32.567,0 58.968,26.4 58.968,58.968 0,32.567 -26.4,58.968 -58.968,58.968 -32.567,0 -58.968,-26.4 -58.968,-58.968 z"
         id="path152" />
      <path
         fill="#ff8b61"
         d="m 480.295,779.863 c 0,-32.567 26.4,-58.968 58.968,-58.968 32.567,0 58.968,26.4 58.968,58.968 0,32.567 -26.4,58.968 -58.968,58.968 -32.567,0 -58.968,-26.4 -58.968,-58.968 z m 121.474,119.115 c 0,-32.567 26.4,-58.968 58.968,-58.968 32.567,0 58.968,26.401 58.968,58.968 0,32.568 -26.4,58.968 -58.968,58.968 -32.567,0 -58.968,-26.4 -58.968,-58.968 z"
         id="path154" />
      <path
         fill="#36868e"
         d="m 480,960.6 v -60.147 c 0,-33.219 27.06,-60.148 60.442,-60.148 33.382,0 60.443,26.93 60.443,60.148 0,33.218 -27.061,60.147 -60.443,60.147 z"
         id="path156" />
      <path
         fill="#d33367"
         d="M 58.968,1078.536 C 26.401,1078.536 0,1052.136 0,1019.568 0,987.001 26.4,960.6 58.968,960.6 c 32.567,0 58.968,26.4 58.968,58.968 0,32.567 -26.4,58.968 -58.968,58.968 z"
         id="path158" />
      <path
         fill="#ff8b61"
         d="M 58.968,1200.6 C 26.401,1200.6 0,1174.2 0,1141.632 c 0,-32.567 26.4,-58.968 58.968,-58.968 32.567,0 58.968,26.4 58.968,58.968 0,32.567 -26.4,58.968 -58.968,58.968 z m 119.705,-122.064 c -32.567,0 -58.968,-26.4 -58.968,-58.968 0,-32.567 26.401,-58.968 58.968,-58.968 32.567,0 58.968,26.4 58.968,58.968 0,32.567 -26.4,58.968 -58.968,58.968 z"
         id="path160" />
      <path
         fill="#36868e"
         d="m 240,1200.6 h -60.442 c -33.382,0 -60.443,-27.06 -60.443,-60.442 0,-33.382 27.061,-60.443 60.443,-60.443 33.381,0 60.442,27.061 60.442,60.443 z"
         id="path162" />
      <path
         fill="#f1e3cf"
         d="m 901.2,901.8 h -123 v -123 h 123 z"
         id="path164" />
      <path
         fill="#36868e"
         d="m 839.397,893.459 -53.033,-53.033 53.033,-53.034 53.033,53.034 z"
         id="path166" />
      <path
         fill="#d33367"
         d="m 937.002,937.602 h -72.53 c 0,-40.057 32.473,-72.53 72.53,-72.53 z m 0,-194.004 v 72.53 c -40.057,0 -72.53,-32.473 -72.53,-72.53 z m -192.235,0 h 72.53 c 0,40.057 -32.473,72.53 -72.53,72.53 z m 0,194.004 v -72.53 c 40.057,0 72.53,32.473 72.53,72.53 z"
         id="path168" />
      <path
         fill="#ff8b61"
         d="m 120.753,446.468 -85.56,-85.56 85.56,-85.56 85.56,85.56 z"
         id="path170" />
      <path
         fill="#f1e3cf"
         d="m 120.753,404.042 -43.133,-43.134 43.133,-43.133 43.134,43.133 z M 828.2,110.6 h -75 v -75 h 75 z m 0,94 h -75 v -75 h 75 z m 97,-94 h -75 v -75 h 75 z m 0,94 h -75 v -75 h 75 z"
         id="path172" />
      <path
         fill="#2d374c"
         d="m 808.2,89.6 h -35 v -35 h 35 z m 0,94 h -35 v -35 h 35 z m 96,-94 h -35 v -35 h 35 z m 0,94 h -35 v -35 h 35 z m -302.847,502.869 -85.56,-85.56 85.56,-85.56 85.56,85.56 z"
         id="path174" />
      <path
         fill="#36868e"
         d="m 632,631.4 h -61 v -61 h 61 z"
         id="path176" />
      <path
         fill="#f1e3cf"
         d="m 600,960.6 c 66.274,0 120,53.726 120,120 0,66.274 -53.726,120 -120,120 H 480 v -120 c 0,-66.274 53.726,-120 120,-120 z"
         id="path178" />
      <path
         fill="#2d374c"
         d="m 551.759,1057.082 c 39.631,0 71.759,32.128 71.759,71.76 0,39.63 -32.128,71.758 -71.76,71.758 H 480 v -71.759 c 0,-39.631 32.128,-71.759 71.759,-71.759 z"
         id="path180" />
      <path
         fill="#36868e"
         d="m 600,1006.128 c 40.464,0 73.266,32.802 73.266,73.266 0,40.464 -32.802,73.266 -73.266,73.266 -40.464,0 -73.266,-32.802 -73.266,-73.266 0,-40.464 32.802,-73.266 73.266,-73.266 z"
         id="path182" />
      <path
         fill="#2d374c"
         d="m 600,1036.505 c 23.687,0 42.89,19.202 42.89,42.889 0,23.687 -19.203,42.89 -42.89,42.89 -23.687,0 -42.89,-19.203 -42.89,-42.89 0,-23.687 19.203,-42.89 42.89,-42.89 z"
         id="path184" />
      <path
         fill="#36868e"
         d="m 360,720.6 h 120 v 120 c 0,66.274 -53.726,120 -120,120 H 240 v -120 c 0,-66.274 53.726,-120 120,-120 z"
         id="path186" />
      <path
         fill="#2d374c"
         d="m 360,772.46 c 38.965,0 70.553,31.587 70.553,70.552 0,38.965 -31.588,70.553 -70.553,70.553 h -70.553 v -70.553 c 0,-38.965 31.588,-70.553 70.553,-70.553 z"
         id="path188" />
      <path
         fill="#f1e3cf"
         d="m 432.603,720.6 h 48 v 48 c 0,39.765 -32.235,72 -72,72 h -48 v -48 c 0,-39.765 32.236,-72 72,-72 z"
         id="path190" />
      <path
         fill="#36868e"
         d="M 720,1079.997 V 960.6 H 839.397 C 906.004,960.6 960,1014.596 960,1081.203 V 1200.6 H 840.603 C 773.996,1200.6 720,1146.604 720,1079.997 Z"
         id="path192" />
      <path
         fill="#2d374c"
         d="m 771.86,1080.6 c 0,-38.965 31.587,-70.553 70.552,-70.553 38.965,0 70.553,31.588 70.553,70.553 v 70.553 h -70.553 c -38.965,0 -70.553,-31.588 -70.553,-70.553 z"
         id="path194" />
      <path
         fill="#ff8b61"
         d="m 720,1007.997 v -48 h 48 c 39.765,0 72,32.235 72,72 v 48 h -48 c -39.765,0 -72,-32.236 -72,-72 z"
         id="path196" />
      <path
         fill="#f1e3cf"
         d="m 840,720.6 c -66.274,0 -120,-53.726 -120,-120 0,-66.274 53.726,-120 120,-120 h 120 v 120 c 0,66.274 -53.726,120 -120,120 z"
         id="path198" />
      <path
         fill="#d33367"
         d="m 888.241,624.118 c -39.631,0 -71.759,-32.128 -71.759,-71.76 0,-39.63 32.128,-71.758 71.76,-71.758 H 960 v 71.759 c 0,39.631 -32.128,71.759 -71.759,71.759 z"
         id="path200" />
      <path
         fill="#36868e"
         d="m 840,675.072 c -40.464,0 -73.266,-32.802 -73.266,-73.266 0,-40.464 32.802,-73.266 73.266,-73.266 40.464,0 73.266,32.802 73.266,73.266 0,40.464 -32.802,73.266 -73.266,73.266 z"
         id="path202" />
      <path
         fill="#2d374c"
         d="m 840,644.695 c -23.687,0 -42.89,-19.202 -42.89,-42.889 0,-23.687 19.203,-42.89 42.89,-42.89 23.687,0 42.89,19.203 42.89,42.89 0,23.687 -19.203,42.89 -42.89,42.89 z"
         id="path204" />
      <g
         transform="translate(1440,240.6)"
         id="g216" />
      <path
         fill="#ff8b61"
         d="m 661,240.6 -61,61 -61,-61 z"
         id="path218" />
      <path
         fill="#36868e"
         d="M 720,480.6 H 480 l 240,-240 z"
         id="path220" />
      <path
         fill="#f1e3cf"
         d="M 720,480.6 H 480 v -240 z"
         id="path222" />
      <path
         fill="#36868e"
         d="m 299,1200.6 61,-61 61,61 z"
         id="path224" />
      <path
         fill="#f1e3cf"
         d="m 240,960.6 h 240 l -240,240 z"
         id="path226" />
      <path
         fill="#d33367"
         d="m 240,960.6 h 240 v 240 z"
         id="path228" />
      <path
         fill="#ff8b61"
         d="m 1019.6,961 61,-61 61,61 z"
         id="path230" />
      <path
         fill="#36868e"
         d="m 960.6,720.6 h 240 l -240,240 z"
         id="path232" />
      <path
         fill="#f1e3cf"
         d="m 960.6,720.6 h 240 v 240 z"
         id="path234" />
      <path
         fill="#ff8b61"
         d="m 1141.6,960.6 -61,61 -61,-61 z"
         id="path236" />
      <path
         fill="#36868e"
         d="m 1200.6,1200.6 h -240 l 240,-240 z"
         id="path238" />
      <path
         fill="#f1e3cf"
         d="m 1200.6,1200.6 h -240 v -240 z"
         id="path240" />
    </g>
  </g>
</svg>
